<svg xmlns="http://www.w3.org/2000/svg" version="1.1" xmlns:xlink="http://www.w3.org/1999/xlink" xmlns:svgjs="http://svgjs.dev/svgjs" width="1500" height="303" viewBox="0 0 1500 303"><g transform="matrix(1,0,0,1,-0.9090909090909918,-0.3108999158957033)"><svg viewBox="0 0 396 80" data-background-color="#ffffff" preserveAspectRatio="xMidYMid meet" height="303" width="1500" xmlns="http://www.w3.org/2000/svg" xmlns:xlink="http://www.w3.org/1999/xlink"><g id="tight-bounds" transform="matrix(1,0,0,1,0.2400000000000091,0.082085786375103)"><svg viewBox="0 0 395.52 79.83582842724978" height="79.83582842724978" width="395.52"><g><svg viewBox="0 0 395.52 79.83582842724978" height="79.83582842724978" width="395.52"><g><svg viewBox="0 0 395.52 79.83582842724978" height="79.83582842724978" width="395.52"><g id="textblocktransform"><svg viewBox="0 0 395.52 79.83582842724978" height="79.83582842724978" width="395.52" id="textblock"><g><svg viewBox="0 0 395.52 79.83582842724978" height="79.83582842724978" width="395.52"><g transform="matrix(1,0,0,1,0,0)"><svg width="395.52" viewBox="0.5 -37 237.78 48" height="79.83582842724978" data-palette-color="#000000"><path d="M13.1 0.6L13.1 0.6Q9.35 0.6 7.18-1.88 5-4.35 5-8.95L5-8.95 5-21.15 0.5-21.15 0.5-25.05 5.1-25.05 6.05-33.25 9.5-33.25 9.5-25.05 16.7-25.05 16.7-21.15 9.5-21.15 9.5-8.6Q9.5-5.7 10.73-4.55 11.95-3.4 13.65-3.4L13.65-3.4Q14.9-3.4 16.03-3.8 17.15-4.2 18.1-4.75L18.1-4.75 19.35-1.15Q18.35-0.55 16.65 0.03 14.95 0.6 13.1 0.6ZM28.35 0L23.85 0 23.85-37 28.35-37 28.35-21.85Q29.75-23.9 31.9-25.25 34.05-26.6 36.95-26.6L36.95-26.6Q41.35-26.6 43.52-23.95 45.7-21.3 45.7-16.95L45.7-16.95 45.7 0 41.2 0 41.2-16.45Q41.2-19.25 39.9-20.95 38.6-22.65 36.25-22.65L36.25-22.65Q33.95-22.65 31.87-21.03 29.8-19.4 28.35-17.2L28.35-17.2 28.35 0ZM63.4 0.6L63.4 0.6Q60.15 0.6 57.5-1.05 54.85-2.7 53.27-5.73 51.7-8.75 51.7-12.85L51.7-12.85Q51.7-16.75 53.27-19.85 54.85-22.95 57.62-24.78 60.4-26.6 64-26.6L64-26.6Q66.25-26.6 68.07-25.83 69.9-25.05 71.25-23.9L71.25-23.9 71.25-26 75.35-26 75.35-6.3Q75.35-4.4 76.27-3.83 77.2-3.25 78.3-3.25L78.3-3.25 77.35 0.25Q72.55 0.25 71.55-3.65L71.55-3.65Q70.4-2.05 68.42-0.73 66.45 0.6 63.4 0.6ZM64.4-3.4L64.4-3.4Q66.3-3.4 68-4.33 69.7-5.25 70.85-6.65L70.85-6.65 70.85-20.6Q69.5-21.55 67.87-22.13 66.25-22.7 64.45-22.7L64.45-22.7Q62.05-22.7 60.22-21.48 58.4-20.25 57.35-18.07 56.3-15.9 56.3-13L56.3-13Q56.3-10.2 57.35-8.03 58.4-5.85 60.25-4.63 62.1-3.4 64.4-3.4ZM88.99 11L84.49 11 84.49-19.35Q84.49-21.05 83.67-21.78 82.84-22.5 81.54-22.5L81.54-22.5 82.49-26Q87.09-26 88.24-22.35L88.24-22.35Q88.74-23.1 89.87-24.1 90.99-25.1 92.67-25.85 94.34-26.6 96.49-26.6L96.49-26.6Q99.49-26.6 102.12-25.03 104.74-23.45 106.34-20.48 107.94-17.5 107.94-13.25L107.94-13.25Q107.94-9.1 106.34-5.98 104.74-2.85 102.17-1.13 99.59 0.6 96.59 0.6L96.59 0.6Q94.29 0.6 92.29-0.33 90.29-1.25 88.99-2.45L88.99-2.45 88.99 11ZM95.69-3.4L95.69-3.4Q99.09-3.4 101.22-6.08 103.34-8.75 103.34-13.1L103.34-13.1Q103.34-16.1 102.27-18.25 101.19-20.4 99.42-21.55 97.64-22.7 95.49-22.7L95.49-22.7Q93.34-22.7 91.62-21.63 89.89-20.55 88.99-19.3L88.99-19.3 88.99-6.5Q90.29-5.15 91.99-4.28 93.69-3.4 95.69-3.4ZM124.14 0.6L124.14 0.6Q120.89 0.6 118.24-1.05 115.59-2.7 114.02-5.73 112.44-8.75 112.44-12.85L112.44-12.85Q112.44-16.75 114.02-19.85 115.59-22.95 118.37-24.78 121.14-26.6 124.74-26.6L124.74-26.6Q126.99-26.6 128.82-25.83 130.64-25.05 131.99-23.9L131.99-23.9 131.99-26 136.09-26 136.09-6.3Q136.09-4.4 137.02-3.83 137.94-3.25 139.04-3.25L139.04-3.25 138.09 0.25Q133.29 0.25 132.29-3.65L132.29-3.65Q131.14-2.05 129.17-0.73 127.19 0.6 124.14 0.6ZM125.14-3.4L125.14-3.4Q127.04-3.4 128.74-4.33 130.44-5.25 131.59-6.65L131.59-6.65 131.59-20.6Q130.24-21.55 128.62-22.13 126.99-22.7 125.19-22.7L125.19-22.7Q122.79-22.7 120.97-21.48 119.14-20.25 118.09-18.07 117.04-15.9 117.04-13L117.04-13Q117.04-10.2 118.09-8.03 119.14-5.85 120.99-4.63 122.84-3.4 125.14-3.4ZM148.54 0.6L148.54 0.6Q147.19 0.6 146.19-0.4 145.19-1.4 145.19-2.75L145.19-2.75Q145.19-4.3 146.09-5.2 146.99-6.1 148.54-6.1L148.54-6.1Q149.84-6.1 150.86-5.1 151.89-4.1 151.89-2.75L151.89-2.75Q151.89-1.25 150.94-0.33 149.99 0.6 148.54 0.6ZM168.64 0.6L168.64 0.6Q165.44 0.6 162.79-1.05 160.14-2.7 158.59-5.73 157.04-8.75 157.04-12.85L157.04-12.85Q157.04-16.8 158.61-19.9 160.19-23 162.81-24.8 165.44-26.6 168.59-26.6L168.59-26.6Q171.19-26.6 173.06-25.55 174.94-24.5 175.99-23.4L175.99-23.4 175.99-37 180.49-37 180.49-6.3Q180.49-4.4 181.41-3.83 182.34-3.25 183.44-3.25L183.44-3.25 182.49 0.25Q177.74 0.25 176.69-3.55L176.69-3.55Q175.59-2 173.61-0.7 171.64 0.6 168.64 0.6ZM169.64-3.4L169.64-3.4Q171.49-3.4 173.16-4.28 174.84-5.15 175.99-6.55L175.99-6.55 175.99-19.45Q175.04-20.65 173.34-21.68 171.64-22.7 169.59-22.7L169.59-22.7Q167.19-22.7 165.39-21.4 163.59-20.1 162.61-17.93 161.64-15.75 161.64-13L161.64-13Q161.64-10.25 162.69-8.08 163.74-5.9 165.56-4.65 167.39-3.4 169.64-3.4ZM199.33 0.6L199.33 0.6Q193.73 0.6 190.46-2.98 187.18-6.55 187.18-13L187.18-13Q187.18-16.9 188.66-19.98 190.13-23.05 192.78-24.83 195.43-26.6 198.93-26.6L198.93-26.6Q202.68-26.6 205.16-24.98 207.63-23.35 208.88-20.6 210.13-17.85 210.13-14.55L210.13-14.55Q210.13-12.8 209.98-11.15L209.98-11.15 191.78-11.15Q192.23-7.5 194.33-5.45 196.43-3.4 199.88-3.4L199.88-3.4Q202.13-3.4 203.93-3.88 205.73-4.35 207.38-5.1L207.38-5.1 208.43-1.25Q206.63-0.45 204.38 0.08 202.13 0.6 199.33 0.6ZM191.73-14.8L191.73-14.8 205.98-14.8Q205.98-18.6 204.08-20.65 202.18-22.7 198.83-22.7L198.83-22.7Q195.93-22.7 194.03-20.68 192.13-18.65 191.73-14.8ZM227.78 0L223.08 0 212.63-24.8 216.73-26.5 225.58-5.1 234.43-26.5 238.28-24.8 227.78 0Z" opacity="1" transform="matrix(1,0,0,1,0,0)" fill="#000000" class="wordmark-text-0" data-fill-palette-color="primary" id="text-0"></path></svg></g></svg></g></svg></g></svg></g></svg></g><defs></defs></svg><rect width="395.52" height="79.83582842724978" fill="none" stroke="none" visibility="hidden"></rect></g></svg></g></svg>